HIERARCHY
ROOT Hips
{
	OFFSET 0.000000 100.481300 0.000000
	CHANNELS 6 Xposition Yposition Zposition Xrotation Yrotation Zrotation
	JOINT Spine
	{
		OFFSET -0.279200 12.230698 -2.892100
		CHANNELS 3 Xrotation Yrotation Zrotation
		JOINT Spine1
		{
			OFFSET -0.325700 14.269203 -3.374200
			CHANNELS 3 Xrotation Yrotation Zrotation
			JOINT Spine2
			{
				OFFSET -0.372300 16.307602 -0.352600
				CHANNELS 3 Xrotation Yrotation Zrotation
				JOINT Neck
				{
					OFFSET -0.418800 17.814194 8.416900
					CHANNELS 3 Xrotation Yrotation Zrotation
					JOINT Head
					{
						OFFSET 0.000000 7.031097 3.806800
						CHANNELS 3 Xrotation Yrotation Zrotation
						JOINT HeadTop_End
						{
							OFFSET 0.000000 24.646606 12.978600
							CHANNELS 3 Xrotation Yrotation Zrotation
							End Site
							{
								OFFSET 0.000000 27.854965 0.000000
							}
						}
					}
				}
				JOINT LeftShoulder
				{
					OFFSET 16.952999 14.495407 -7.737500
					CHANNELS 3 Xrotation Yrotation Zrotation
					JOINT LeftArm
					{
						OFFSET 9.308998 -2.777710 0.208600
						CHANNELS 3 Xrotation Yrotation Zrotation
						JOINT LeftForeArm
						{
							OFFSET 29.972298 0.000000 0.000000
							CHANNELS 3 Xrotation Yrotation Zrotation
							JOINT LeftHand
							{
								OFFSET 26.026505 0.000000 0.000000
								CHANNELS 3 Xrotation Yrotation Zrotation
								JOINT LeftHandThumb1
								{
									OFFSET 12.240501 -7.147949 9.207150
									CHANNELS 3 Xrotation Yrotation Zrotation
									JOINT LeftHandThumb2
									{
										OFFSET 4.138618 -2.389435 2.389433
										CHANNELS 3 Xrotation Yrotation Zrotation
										JOINT LeftHandThumb3
										{
											OFFSET 2.726913 -1.574387 1.574386
											CHANNELS 3 Xrotation Yrotation Zrotation
											JOINT LeftHandThumb4
											{
												OFFSET 3.941010 -2.275345 2.275342
												CHANNELS 3 Xrotation Yrotation Zrotation
												End Site
												{
													OFFSET -0.005798 5.087799 0.009903
												}
											}
										}
									}
								}
								JOINT LeftHandIndex1
								{
									OFFSET 24.424698 -1.985611 5.953459
									CHANNELS 3 Xrotation Yrotation Zrotation
									JOINT LeftHandIndex2
									{
										OFFSET 6.426697 0.000000 0.000000
										CHANNELS 3 Xrotation Yrotation Zrotation
										JOINT LeftHandIndex3
										{
											OFFSET 5.337898 0.000000 0.000000
											CHANNELS 3 Xrotation Yrotation Zrotation
											JOINT LeftHandIndex4
											{
												OFFSET 4.409401 0.000000 0.000000
												CHANNELS 3 Xrotation Yrotation Zrotation
												End Site
												{
													OFFSET 0.000000 4.409363 0.014373
												}
											}
										}
									}
								}
								JOINT LeftHandMiddle1
								{
									OFFSET 23.810104 0.000000 0.000000
									CHANNELS 3 Xrotation Yrotation Zrotation
									JOINT LeftHandMiddle2
									{
										OFFSET 7.176498 0.000000 0.000000
										CHANNELS 3 Xrotation Yrotation Zrotation
										JOINT LeftHandMiddle3
										{
											OFFSET 6.774902 0.000000 0.000000
											CHANNELS 3 Xrotation Yrotation Zrotation
											JOINT LeftHandMiddle4
											{
												OFFSET 5.403328 0.000000 0.000000
												CHANNELS 3 Xrotation Yrotation Zrotation
												End Site
												{
													OFFSET -0.027702 5.403244 0.017414
												}
											}
										}
									}
								}
								JOINT LeftHandRing1
								{
									OFFSET 22.908401 -0.839279 -6.020567
									CHANNELS 3 Xrotation Yrotation Zrotation
									JOINT LeftHandRing2
									{
										OFFSET 6.337502 0.000000 0.000000
										CHANNELS 3 Xrotation Yrotation Zrotation
										JOINT LeftHandRing3
										{
											OFFSET 5.779297 0.000000 0.000000
											CHANNELS 3 Xrotation Yrotation Zrotation
											JOINT LeftHandRing4
											{
												OFFSET 4.965698 0.000000 0.000000
												CHANNELS 3 Xrotation Yrotation Zrotation
												End Site
												{
													OFFSET 0.000000 4.965668 0.016186
												}
											}
										}
									}
								}
								JOINT LeftHandPinky1
								{
									OFFSET 20.037003 -1.530319 -10.950146
									CHANNELS 3 Xrotation Yrotation Zrotation
									JOINT LeftHandPinky2
									{
										OFFSET 5.254700 0.000000 0.000000
										CHANNELS 3 Xrotation Yrotation Zrotation
										JOINT LeftHandPinky3
										{
											OFFSET 4.810204 0.000000 0.000000
											CHANNELS 3 Xrotation Yrotation Zrotation
											JOINT LeftHandPinky4
											{
												OFFSET 3.647202 0.000000 0.000000
												CHANNELS 3 Xrotation Yrotation Zrotation
												End Site
												{
													OFFSET 0.000000 3.647186 0.011889
												}
											}
										}
									}
								}
							}
						}
					}
				}
				JOINT RightShoulder
				{
					OFFSET -15.141001 14.495407 -7.737500
					CHANNELS 3 Xrotation Yrotation Zrotation
					JOINT RightArm
					{
						OFFSET -9.308998 -2.777710 0.208500
						CHANNELS 3 Xrotation Yrotation Zrotation
						JOINT RightForeArm
						{
							OFFSET -29.972300 0.000000 0.000000
							CHANNELS 3 Xrotation Yrotation Zrotation
							JOINT RightHand
							{
								OFFSET -26.026505 0.000000 0.000000
								CHANNELS 3 Xrotation Yrotation Zrotation
								JOINT RightHandThumb1
								{
									OFFSET -12.240601 -7.148026 9.207092
									CHANNELS 3 Xrotation Yrotation Zrotation
									JOINT RightHandThumb2
									{
										OFFSET -4.138618 -2.389435 2.389433
										CHANNELS 3 Xrotation Yrotation Zrotation
										JOINT RightHandThumb3
										{
											OFFSET -2.726974 -1.574417 1.574421
											CHANNELS 3 Xrotation Yrotation Zrotation
											JOINT RightHandThumb4
											{
												OFFSET -3.941010 -2.275345 2.275343
												CHANNELS 3 Xrotation Yrotation Zrotation
												End Site
												{
													OFFSET 0.005814 5.087799 0.009927
												}
											}
										}
									}
								}
								JOINT RightHandIndex1
								{
									OFFSET -24.424698 -1.985657 5.953444
									CHANNELS 3 Xrotation Yrotation Zrotation
									JOINT RightHandIndex2
									{
										OFFSET -6.426697 0.000000 0.000000
										CHANNELS 3 Xrotation Yrotation Zrotation
										JOINT RightHandIndex3
										{
											OFFSET -5.337898 0.000000 0.000000
											CHANNELS 3 Xrotation Yrotation Zrotation
											JOINT RightHandIndex4
											{
												OFFSET -4.409401 0.000000 0.000000
												CHANNELS 3 Xrotation Yrotation Zrotation
												End Site
												{
													OFFSET 0.000000 4.409363 0.014408
												}
											}
										}
									}
								}
								JOINT RightHandMiddle1
								{
									OFFSET -23.810097 0.000000 0.000000
									CHANNELS 3 Xrotation Yrotation Zrotation
									JOINT RightHandMiddle2
									{
										OFFSET -7.176498 0.000000 0.000000
										CHANNELS 3 Xrotation Yrotation Zrotation
										JOINT RightHandMiddle3
										{
											OFFSET -6.774902 0.000000 0.000000
											CHANNELS 3 Xrotation Yrotation Zrotation
											JOINT RightHandMiddle4
											{
												OFFSET -5.403328 0.000000 0.000000
												CHANNELS 3 Xrotation Yrotation Zrotation
												End Site
												{
													OFFSET 0.027702 5.403244 0.017457
												}
											}
										}
									}
								}
								JOINT RightHandRing1
								{
									OFFSET -22.908302 -0.839325 -6.020576
									CHANNELS 3 Xrotation Yrotation Zrotation
									JOINT RightHandRing2
									{
										OFFSET -6.337502 0.000000 0.000000
										CHANNELS 3 Xrotation Yrotation Zrotation
										JOINT RightHandRing3
										{
											OFFSET -5.779297 0.000000 0.000000
											CHANNELS 3 Xrotation Yrotation Zrotation
											JOINT RightHandRing4
											{
												OFFSET -4.965698 0.000000 0.000000
												CHANNELS 3 Xrotation Yrotation Zrotation
												End Site
												{
													OFFSET 0.000000 4.965668 0.016226
												}
											}
										}
									}
								}
								JOINT RightHandPinky1
								{
									OFFSET -20.037003 -1.530334 -10.950259
									CHANNELS 3 Xrotation Yrotation Zrotation
									JOINT RightHandPinky2
									{
										OFFSET -5.254700 0.000000 0.000000
										CHANNELS 3 Xrotation Yrotation Zrotation
										JOINT RightHandPinky3
										{
											OFFSET -4.810204 0.000000 0.000000
											CHANNELS 3 Xrotation Yrotation Zrotation
											JOINT RightHandPinky4
											{
												OFFSET -3.647202 0.000000 0.000000
												CHANNELS 3 Xrotation Yrotation Zrotation
												End Site
												{
													OFFSET 0.000000 3.647186 0.011917
												}
											}
										}
									}
								}
							}
						}
					}
				}
			}
		}
	}
	JOINT LeftUpLeg
	{
		OFFSET 15.427100 -6.655098 0.678600
		CHANNELS 3 Xrotation Yrotation Zrotation
		JOINT LeftLeg
		{
			OFFSET 4.081073 -39.591068 13.024000
			CHANNELS 3 Xrotation Yrotation Zrotation
			JOINT LeftFoot
			{
				OFFSET -4.081074 -37.707932 -15.979700
				CHANNELS 3 Xrotation Yrotation Zrotation
				JOINT LeftToeBase
				{
					OFFSET 5.346399 -15.068900 20.645000
					CHANNELS 3 Xrotation Yrotation Zrotation
					JOINT LeftToe_End
					{
						OFFSET 2.754700 0.931300 11.300900
						CHANNELS 3 Xrotation Yrotation Zrotation
						End Site
						{
							OFFSET 0.000000 11.669021 0.000000
						}
					}
				}
			}
		}
	}
	JOINT RightUpLeg
	{
		OFFSET -15.569500 -6.655098 0.678600
		CHANNELS 3 Xrotation Yrotation Zrotation
		JOINT RightLeg
		{
			OFFSET -4.081825 -39.591045 13.023800
			CHANNELS 3 Xrotation Yrotation Zrotation
			JOINT RightFoot
			{
				OFFSET 4.081824 -37.707954 -15.979600
				CHANNELS 3 Xrotation Yrotation Zrotation
				JOINT RightToeBase
				{
					OFFSET -5.346400 -15.068900 20.645000
					CHANNELS 3 Xrotation Yrotation Zrotation
					JOINT RightToe_End
					{
						OFFSET -2.754700 0.931300 11.300900
						CHANNELS 3 Xrotation Yrotation Zrotation
						End Site
						{
							OFFSET 0.000000 11.669021 0.000000
						}
					}
				}
			}
		}
	}
}
MOTION
Frames: 4
Frame Time: 0.033333
-1.095086 99.235161 -0.722115 3.086755 2.866723 -0.361901 -0.339498 0.050668 0.465462 -0.322193 0.046869 0.726619 -0.322194 0.048105 0.726526 -0.975351 -0.511246 -0.546990 -3.640806 -2.459795 -3.347365 -0.000000 -0.000000 -0.000000 2.227052 -13.968971 -11.174149 15.473840 -34.407686 -56.728457 0.000001 -9.026322 -0.000005 -32.938095 -16.685360 3.521229 2.328996 13.915621 11.102802 7.744817 12.002513 -1.446911 1.303073 3.628554 1.729263 -0.000001 0.000001 -0.000000 0.043658 0.775775 -6.442303 0.100920 1.176959 -9.801820 0.025269 0.590640 -4.900380 0.000001 0.000000 -0.000001 0.043447 0.773855 -6.426328 0.101250 1.178857 -9.817788 0.025274 0.590637 -4.900379 0.000002 0.000001 0.000001 0.043658 0.775775 -6.442301 0.100918 1.176958 -9.801819 0.025278 0.590640 -4.900372 -0.000001 -0.000002 0.000001 0.481788 4.806393 -5.953228 0.093452 -2.878236 -10.305085 0.025276 0.590638 -4.900369 -0.000000 0.000001 -0.000000 0.828548 -0.256607 10.258340 24.866881 31.413502 52.726612 -0.000008 21.990574 0.000011 -21.017720 5.754174 -14.311636 0.925676 -12.316388 -2.902935 8.986076 -19.208102 -3.185045 0.983754 -5.064981 -4.018863 0.000000 0.000002 -0.000002 0.053198 -0.860249 7.077390 0.020490 -0.534386 4.389504 0.005120 -0.267396 2.194715 0.000002 0.000001 -0.000000 0.053199 -0.860249 7.077390 0.020489 -0.534386 4.389502 0.005125 -0.267397 2.194709 0.000001 0.000000 -0.000001 0.053198 -0.860249 7.077394 0.020489 -0.534387 4.389498 0.005121 -0.267396 2.194716 -0.000000 -0.000000 -0.000000 0.053198 -0.860249 7.077390 0.020488 -0.534387 4.389502 0.005121 -0.267397 2.194715 -0.000003 0.000001 -0.000001 -3.522091 2.780161 -4.407447 5.926737 3.861457 3.376510 -4.809412 -0.837942 0.372760 -2.875889 0.000003 -0.000000 -0.000000 0.000000 0.000000 -10.118085 -18.404237 2.904336 15.447041 7.960719 -5.969382 -2.764858 10.912849 -8.634396 -9.724962 0.000002 -0.000003 0.000000 0.000000 -0.000001 
-0.908354 99.201431 -0.492575 3.192789 2.766015 -0.479288 -0.352156 0.127994 0.475454 -0.329775 0.107978 0.744125 -0.329772 0.109144 0.743942 -0.899491 -0.510259 -0.493856 -3.781445 -2.398186 -3.253599 0.000000 0.000000 0.000000 2.231759 -14.042111 -11.166107 15.481039 -34.400490 -56.664212 0.000003 -9.235784 -0.000002 -33.210948 -16.007610 3.353806 2.328995 13.915622 11.102796 7.744821 12.002512 -1.446910 1.303070 3.628555 1.729265 0.000003 -0.000000 0.000001 0.043662 0.775777 -6.442302 0.100918 1.176959 -9.801820 0.025271 0.590640 -4.900379 0.000001 -0.000001 0.000001 0.043448 0.773857 -6.426327 0.101249 1.178859 -9.817787 0.025273 0.590637 -4.900381 -0.000001 -0.000001 0.000001 0.043662 0.775777 -6.442303 0.100917 1.176958 -9.801818 0.025279 0.590642 -4.900371 0.000002 -0.000000 -0.000001 0.481790 4.806396 -5.953228 0.093450 -2.878236 -10.305082 0.025276 0.590635 -4.900370 -0.000002 0.000001 -0.000001 0.835276 -0.193405 10.280916 24.864855 31.544054 52.839771 -0.000002 21.523135 0.000013 -21.004760 5.942110 -15.606446 0.925677 -12.316388 -2.902932 8.986072 -19.208106 -3.185044 0.983757 -5.064982 -4.018871 0.000000 -0.000000 -0.000002 0.053198 -0.860247 7.077392 0.020489 -0.534389 4.389508 0.005119 -0.267398 2.194715 0.000001 0.000000 0.000000 0.053199 -0.860247 7.077391 0.020486 -0.534389 4.389503 0.005122 -0.267398 2.194708 0.000001 -0.000001 0.000001 0.053198 -0.860246 7.077396 0.020486 -0.534387 4.389500 0.005122 -0.267398 2.194716 0.000002 -0.000000 0.000000 0.053198 -0.860247 7.077391 0.020487 -0.534389 4.389504 0.005118 -0.267398 2.194716 -0.000000 -0.000001 0.000001 -3.257225 2.887550 -4.094795 5.864882 5.074962 2.943386 -5.232675 -0.741757 0.423130 -2.796199 -0.000003 0.000002 -0.000000 0.000000 -0.000000 -10.046017 -18.395050 2.926584 15.482483 7.890718 -5.979707 -2.996468 10.851085 -8.655251 -9.740335 0.000004 0.000000 -0.000000 0.000000 0.000000 
-0.698578 99.206810 -0.241991 3.201481 2.762055 -0.503330 -0.262140 0.217452 0.435203 -0.253534 0.179799 0.725001 -0.253485 0.180917 0.724707 -0.835797 -0.533767 -0.387396 -3.897256 -2.374807 -3.225277 -0.000000 0.000000 0.000000 2.239395 -14.188462 -11.149072 15.463029 -34.297894 -56.529880 0.000002 -9.423390 -0.000001 -32.929916 -15.877319 3.970873 2.328995 13.915621 11.102796 7.744818 12.002516 -1.446910 1.303071 3.628554 1.729263 0.000000 -0.000000 -0.000002 0.043659 0.775776 -6.442304 0.100919 1.176959 -9.801821 0.025270 0.590636 -4.900379 -0.000001 -0.000000 -0.000000 0.043445 0.773858 -6.426327 0.101251 1.178856 -9.817788 0.025270 0.590639 -4.900382 -0.000000 -0.000001 -0.000000 0.043660 0.775776 -6.442303 0.100919 1.176961 -9.801820 0.025277 0.590644 -4.900372 0.000001 -0.000001 -0.000000 0.481789 4.806396 -5.953230 0.093451 -2.878238 -10.305083 0.025274 0.590639 -4.900372 0.000000 0.000003 -0.000001 0.847935 -0.112036 10.342305 24.790132 31.577788 52.939341 0.000000 21.226076 0.000003 -20.071817 5.868008 -16.479192 0.925674 -12.316389 -2.902935 8.986073 -19.208109 -3.185049 0.983757 -5.064979 -4.018867 0.000001 -0.000001 -0.000002 0.053196 -0.860245 7.077390 0.020485 -0.534388 4.389506 0.005121 -0.267396 2.194714 0.000000 0.000002 -0.000001 0.053197 -0.860245 7.077388 0.020484 -0.534390 4.389503 0.005121 -0.267397 2.194709 -0.000001 -0.000001 0.000000 0.053196 -0.860244 7.077394 0.020485 -0.534391 4.389499 0.005121 -0.267397 2.194716 -0.000002 0.000002 -0.000001 0.053196 -0.860245 7.077388 0.020486 -0.534389 4.389502 0.005122 -0.267395 2.194716 0.000001 -0.000001 -0.000001 -3.142869 2.801381 -4.299887 5.816483 4.006425 2.933984 -5.305069 -0.844379 0.630495 -2.713709 -0.000001 0.000001 -0.000000 0.000001 0.000000 -9.763704 -18.469694 2.843321 15.330595 7.904757 -5.984993 -3.304114 10.703629 -8.557833 -9.584159 -0.000001 -0.000003 -0.000000 0.000000 -0.000000 
-0.598253 99.262985 0.127004 3.069660 2.363528 -0.564043 -0.205886 0.293624 0.400179 -0.208410 0.236326 0.693758 -0.208303 0.237421 0.693373 -0.801813 -0.561145 -0.269362 -3.948704 -2.350964 -3.233547 0.000000 0.000000 -0.000000 2.246273 -14.330061 -11.132425 15.473184 -34.146885 -56.401407 -0.000002 -9.601798 -0.000001 -32.912534 -16.095175 4.907112 2.328996 13.915622 11.102799 7.744820 12.002516 -1.446906 1.303072 3.628554 1.729262 0.000001 0.000001 -0.000002 0.043660 0.775775 -6.442300 0.100917 1.176960 -9.801819 0.025272 0.590640 -4.900380 -0.000000 0.000002 -0.000001 0.043448 0.773854 -6.426326 0.101251 1.178859 -9.817790 0.025270 0.590637 -4.900380 -0.000001 0.000003 0.000000 0.043660 0.775775 -6.442299 0.100914 1.176962 -9.801820 0.025280 0.590641 -4.900372 -0.000000 -0.000002 0.000001 0.481789 4.806397 -5.953228 0.093450 -2.878235 -10.305080 0.025276 0.590637 -4.900370 0.000001 0.000000 -0.000001 0.863555 -0.015798 10.419355 24.755259 31.560610 52.964579 -0.000000 21.128026 -0.000003 -19.007832 5.674016 -16.960487 0.925676 -12.316385 -2.902934 8.986072 -19.208109 -3.185052 0.983756 -5.064981 -4.018868 -0.000004 0.000000 -0.000001 0.053198 -0.860246 7.077390 0.020488 -0.534386 4.389504 0.005121 -0.267399 2.194717 -0.000002 -0.000000 0.000000 0.053199 -0.860245 7.077390 0.020484 -0.534387 4.389504 0.005121 -0.267399 2.194708 0.000000 0.000001 -0.000001 0.053197 -0.860245 7.077395 0.020486 -0.534389 4.389500 0.005124 -0.267397 2.194717 -0.000000 -0.000001 0.000001 0.053198 -0.860246 7.077390 0.020485 -0.534388 4.389503 0.005118 -0.267398 2.194717 -0.000001 0.000001 -0.000001 -2.439543 3.969747 -4.020766 5.438418 3.249313 2.312128 -5.403778 -0.983842 1.174408 -2.730388 -0.000001 0.000001 0.000000 -0.000001 0.000000 -9.103509 -18.092643 3.186565 14.918550 7.902230 -6.292815 -3.598442 10.526829 -8.309420 -9.317470 0.000002 -0.000002 0.000000 0.000000 -0.000001 
